Coordinates
version=1
nRows=12
nColumns=34
inDegrees=no

Units are S.I. units (second, meters, Newtons, ...)
If the header above contains a line with 'inDegrees', this indicates whether rotational values are in degrees (yes) or radians (no).

endheader
time	pelvis_tilt	pelvis_list	pelvis_rotation	pelvis_tx	pelvis_ty	pelvis_tz	hip_flexion_r	hip_adduction_r	hip_rotation_r	knee_angle_r	ankle_angle_r	subtalar_angle_r	mtp_angle_r	hip_flexion_l	hip_adduction_l	hip_rotation_l	knee_angle_l	ankle_angle_l	subtalar_angle_l	mtp_angle_l	lumbar_extension	lumbar_bending	lumbar_rotation	arm_flex_r	arm_add_r	arm_rot_r	elbow_flex_r	pro_sup_r	arm_flex_l	arm_add_l	arm_rot_l	elbow_flex_l	pro_sup_l
0.01	0.243524	0.0272285	0.104642	-0.283625	0.886612	-0.252568	0.221176	-0.0496912	-0.139962	-0.0155685	0.0953895	0.0176875	-0.13616	-0.539295	-0.0248577	-0.299157	0.201537	0.415667	0.439644	-0.136267	-0.491709	0.0489253	-0.125394	0.0689041	-0.189317	-0.076297	0.324898	0.955766	0.470453	-0.269802	0.181081	0.778576	1.08229
0.02	0.238075	0.0243123	0.115198	-0.267678	0.886743	-0.251821	0.22178	-0.0463123	-0.122045	-0.0216262	0.107238	0.0313584	-0.13615	-0.539809	-0.0438568	-0.304498	0.225177	0.420495	0.455198	-0.136255	-0.487935	0.0543466	-0.13375	0.0658846	-0.187923	-0.0821079	0.320595	0.956324	0.477504	-0.273001	0.187982	0.783114	1.08213
0.03	0.23411	0.0199459	0.124562	-0.251289	0.886884	-0.250978	0.222335	-0.040742	-0.108941	-0.0208679	0.111133	0.0377021	-0.136139	-0.540929	-0.0636279	-0.309004	0.250602	0.418811	0.4651	-0.136244	-0.484164	0.0610196	-0.140526	0.0624944	-0.186919	-0.087308	0.317017	0.95655	0.481645	-0.275541	0.19355	0.786669	1.08259
0.04	0.23166	0.0141458	0.132727	-0.234463	0.887029	-0.250036	0.222849	-0.0329802	-0.100514	-0.0133357	0.107096	0.0366742	-0.136129	-0.542631	-0.0841481	-0.312625	0.277827	0.4105	0.469199	-0.136233	-0.480411	0.0689394	-0.145713	0.0587531	-0.186304	-0.0918768	0.314146	0.956447	0.482893	-0.277422	0.197781	0.789237	1.08367
0.05	0.230748	0.00693003	0.139683	-0.217221	0.887182	-0.248991	0.223324	-0.0230348	-0.0963466	0.000816824	0.0952785	0.0281711	-0.136118	-0.544839	-0.10535	-0.315241	0.306904	0.395219	0.46704	-0.136221	-0.47674	0.0780826	-0.149292	0.054722	-0.186072	-0.0957508	0.311927	0.956031	0.481311	-0.27865	0.200665	0.790801	1.08545
0.06	0.231359	-0.00167469	0.145412	-0.199605	0.887356	-0.247837	0.223752	-0.0109317	-0.0956651	0.0212298	0.0761418	0.0121113	-0.136107	-0.547366	-0.127118	-0.316678	0.337931	0.372359	0.457813	-0.13621	-0.473276	0.0884014	-0.15123	0.0505249	-0.186209	-0.0988088	0.310257	0.955335	0.477032	-0.279231	0.202192	0.791327	1.088
0.07	0.233409	-0.0116163	0.149892	-0.181682	0.887568	-0.246568	0.224129	0.0032587	-0.0973982	0.04729	0.0506693	-0.0113718	-0.136097	-0.549857	-0.149292	-0.31678	0.371057	0.341114	0.440431	-0.136199	-0.470153	0.0998064	-0.151485	0.0463571	-0.186692	-0.100875	0.308981	0.954421	0.470276	-0.279166	0.202363	0.790767	1.09145
0.08	0.236694	-0.0227896	0.153099	-0.163546	0.887837	-0.245177	0.224511	0.0193668	-0.100354	0.0781925	0.0205253	-0.0416606	-0.136086	-0.551735	-0.171666	-0.31547	0.406485	0.300658	0.413723	-0.136188	-0.467483	0.112139	-0.150022	0.0424875	-0.187488	-0.101736	0.307915	0.953381	0.461363	-0.278451	0.201211	0.789053	1.09589
0.09	0.240851	-0.0349854	0.154999	-0.145317	0.888173	-0.243667	0.225073	0.0370392	-0.103471	0.113049	-0.0118983	-0.0773772	-0.136076	-0.552179	-0.193948	-0.312787	0.444452	0.250421	0.376708	-0.136176	-0.465302	0.125121	-0.146837	0.039247	-0.188559	-0.101173	0.306868	0.952331	0.450707	-0.27707	0.198817	0.786101	1.10134
0.1	0.245349	-0.047877	0.155562	-0.127133	0.888581	-0.242044	0.226118	0.0557043	-0.106059	0.150943	-0.0436195	-0.116224	-0.136065	-0.550148	-0.215766	-0.308869	0.485184	0.190412	0.32888	-0.136165	-0.46354	0.138352	-0.141977	0.0370028	-0.189857	-0.0990037	0.305676	0.951405	0.438794	-0.274996	0.195332	0.781814	1.10767
0.11	0.249526	-0.0610465	0.154787	-0.109144	0.889055	-0.240329	0.228015	0.0746084	-0.107945	0.190905	-0.0714017	-0.155072	-0.136055	-0.544463	-0.236704	-0.303912	0.528847	0.121548	0.270483	-0.136154	-0.462015	0.151348	-0.13556	0.0361188	-0.191333	-0.0951182	0.304234	0.950746	0.426149	-0.272192	0.190983	0.776089	1.11458
0.12	0.252689	-0.074052	0.15275	-0.0914849	0.889583	-0.23855	0.23105	0.0929307	-0.109446	0.231852	-0.0922503	-0.190379	-0.136044	-0.533946	-0.256384	-0.298085	0.575529	0.0458731	0.202709	-0.136143	-0.460465	0.163628	-0.127778	0.0369065	-0.192938	-0.0895074	0.302519	0.950496	0.41329	-0.268623	0.186076	0.768828	1.12154
